[center][img]http://img402.imageshack.us/img402/3680/battlelosangelesmoviepo.jpg[/img]



[img]http://leetleech.org/images/48874973695367351744.png[/img]


Format                           : AVI
Format/Info                      : Audio Video Interleave
File size                        : 1.51 GiB
Duration                         : 1h 50mn
Overall bit rate                 : 1 954 Kbps
Writing application              : VirtualDubMod 1.5.10.3 | www.virtualdub-fr.org || (build 2550/release)
Writing library                  : VirtualDubMod build 2550/release

Video
ID                               : 0
Format                           : MPEG-4 Visual
Format profile                   : Advanced Simple@L5
Format settings, BVOP            : Yes
Format settings, QPel            : No
Format settings, GMC             : No warppoints
Format settings, Matrix          : Custom
Codec ID                         : XVID
Codec ID/Hint                    : XviD
Duration                         : 1h 50mn
Bit rate                         : 1 816 Kbps
Width                            : 720 pixels
Height                           : 336 pixels
Display aspect ratio             : 2.2:1
Frame rate                       : 25.000 fps
Color space                      : YUV
Chroma subsampling               : 4:2:0
Bit depth                        : 8 bits
Scan type                        : Progressive
Bits/(Pixel*Frame)               : 0.300
Stream size                      : 1.40 GiB (93%)
Writing library                  : XviD 1.2.1 (UTC 2008-12-04)

Audio
ID                               : 1
Format                           : MPEG Audio
Format version                   : Version 1
Format profile                   : Layer 3
Codec ID                         : 55
Codec ID/Hint                    : MP3
Duration                         : 1h 50mn
Bit rate mode                    : Constant
Bit rate                         : 128 Kbps
Channel(s)                       : 2 channels
Sampling rate                    : 44.1 KHz
Stream size                      : 101 MiB (7%)
Alignment                        : Split accross interleaves
Interleave, duration             : 40 ms (1.00 video frame)
Interleave, preload duration     : 500 ms




[url]http://www.imdb.com/title/tt1217613/[/url]




[IMG]http://leetleech.org/images/89524873606771859129.png[/IMG]


Users: 6.7/10 (6,616 votes) 221 reviews | Critics: 119 reviews Metascore: 37/100 (based on 35 reviews from Metacritic.com)

A Marine platoon faces off against an alien invasion in Los Angeles.
Director:
Jonathan Liebesman
Writer:
Christopher Bertolini
Stars:
Aaron Eckhart, Michelle Rodriguez and Bridget Moynahan 



[img]http://leetleech.org/images/95521316153253938506.png[/img]




[img]http://img26.imageshack.us/img26/213/vlcsnap2011031609h06m24.png[/img]

[img]http://img855.imageshack.us/img855/774/vlcsnap2011031519h26m30.png[/img]

[img]http://img24.imageshack.us/img24/7898/vlcsnap2011031519h38m12.png[/img]



SOURCES:



VIDEO:Inoplanetnoe.vtorzhenie.Bitva.za.Los-Andzheles.2011.D.TS.ELEKTRI4KA ................ Thanks

AUDIO:Imagine ...................Thanks 

File size is larger by 100mb than wanted but wasnt going to do it all again for sake of it so included a sample so you can decide for yourself

This is reupped after some form of corruption when i released earlier in the day

Filters done .sharpened ,brightness/contrast saturation levels rgb colours ..............


Enjoy !

Greetz to Imagine ,Flawl3ss,DiLLoN,BDK,NOiR,TOXiCiNK,THC,Ez,Rx,[/center]